<?xml version="1.0" encoding="utf-8"?>
<!-- Generator: Adobe Illustrator 27.3.1, SVG Export Plug-In . SVG Version: 6.00 Build 0)  -->
<svg version="1.1" id="Layer_2_00000041279729600824037950000001475143556266013829_"
	 xmlns="http://www.w3.org/2000/svg" xmlns:xlink="http://www.w3.org/1999/xlink" x="0px" y="0px" viewBox="0 0 823.8 359"
	 style="enable-background:new 0 0 823.8 359;" xml:space="preserve">
<style type="text/css">
	.st0{enable-background:new    ;}
	.st1{fill:#FFFFFF;}
	.st2{fill:url(#SVGID_1_);}
</style>
<g class="st0">
	<path class="st1" d="M481.7,77V39h-13.6v-7.7h36.4V39h-13.6v38H481.7z"/>
	<path class="st1" d="M510.5,77V31.2h19.5c4.9,0,8.4,0.4,10.7,1.2c2.2,0.8,4,2.3,5.3,4.4s2,4.5,2,7.2c0,3.4-1,6.3-3,8.5
		c-2,2.2-5,3.6-9.1,4.2c2,1.2,3.6,2.4,4.9,3.8s3.1,3.9,5.3,7.4l5.6,8.9h-11.1l-6.7-10c-2.4-3.6-4-5.8-4.9-6.7
		c-0.9-0.9-1.8-1.6-2.8-1.9s-2.5-0.5-4.7-0.5h-1.9V77H510.5z M519.7,50.6h6.8c4.4,0,7.2-0.2,8.3-0.6c1.1-0.4,2-1,2.6-1.9
		c0.6-0.9,0.9-2.1,0.9-3.4c0-1.5-0.4-2.8-1.2-3.7s-2-1.5-3.5-1.8c-0.7-0.1-3-0.2-6.7-0.2h-7.2V50.6z"/>
	<path class="st1" d="M597.9,77h-10.1l-4-10.4h-18.3L561.8,77H552l17.8-45.8h9.8L597.9,77z M580.9,58.9l-6.3-17l-6.2,17H580.9z"/>
	<path class="st1" d="M602.5,77V31.2h9.2V77H602.5z"/>
	<path class="st1" d="M620.7,77V31.2h9l18.7,30.6V31.2h8.6V77h-9.3l-18.5-29.9V77H620.7z"/>
	<path class="st1" d="M666.5,77V31.2h9.2V77H666.5z"/>
	<path class="st1" d="M684.6,77V31.2h9l18.7,30.6V31.2h8.6V77h-9.3l-18.5-29.9V77H684.6z"/>
	<path class="st1" d="M752,60.2v-7.7h19.9v18.2c-1.9,1.9-4.7,3.5-8.4,4.9s-7.4,2.1-11.2,2.1c-4.8,0-9-1-12.5-3s-6.2-4.9-8-8.6
		c-1.8-3.7-2.7-7.8-2.7-12.2c0-4.8,1-9,3-12.7c2-3.7,4.9-6.5,8.8-8.5c2.9-1.5,6.6-2.3,11-2.3c5.7,0,10.1,1.2,13.3,3.6
		c3.2,2.4,5.3,5.7,6.2,9.9l-9.2,1.7c-0.6-2.2-1.9-4-3.6-5.3c-1.8-1.3-4-2-6.7-2c-4,0-7.2,1.3-9.6,3.8s-3.6,6.4-3.6,11.4
		c0,5.4,1.2,9.5,3.6,12.2s5.6,4.1,9.5,4.1c1.9,0,3.9-0.4,5.8-1.1s3.6-1.7,5-2.8v-5.8H752z"/>
	<path class="st1" d="M778.1,62.1l9-0.9c0.5,3,1.6,5.2,3.3,6.7c1.7,1.4,3.9,2.1,6.7,2.1c3,0,5.2-0.6,6.7-1.9
		c1.5-1.3,2.3-2.7,2.3-4.4c0-1.1-0.3-2-1-2.8c-0.6-0.8-1.7-1.4-3.3-2c-1.1-0.4-3.5-1-7.4-2c-5-1.2-8.4-2.7-10.4-4.5
		c-2.8-2.5-4.2-5.6-4.2-9.2c0-2.3,0.7-4.5,2-6.5c1.3-2,3.2-3.6,5.7-4.6c2.5-1.1,5.5-1.6,9-1.6c5.7,0,10.1,1.3,13,3.8
		c2.9,2.5,4.4,5.9,4.6,10.1l-9.2,0.4c-0.4-2.4-1.2-4-2.5-5.1c-1.3-1-3.3-1.5-5.9-1.5c-2.7,0-4.8,0.6-6.3,1.7c-1,0.7-1.5,1.7-1.5,2.8
		c0,1.1,0.5,2,1.4,2.8c1.2,1,4,2,8.5,3.1c4.5,1.1,7.8,2.2,10,3.3c2.2,1.1,3.8,2.7,5.1,4.7c1.2,2,1.8,4.4,1.8,7.3
		c0,2.6-0.7,5.1-2.2,7.4s-3.5,4-6.2,5.1c-2.7,1.1-6,1.7-10,1.7c-5.8,0-10.2-1.3-13.3-4C780.6,71.1,778.7,67.2,778.1,62.1z"/>
</g>
<g class="st0">
	<path class="st1" d="M194,340.5v-30.2h20.4v3.6H198v9.4h14.2v3.6H198v13.7H194z"/>
	<path class="st1" d="M234.1,333.4l3.8,0.5c-0.6,2.2-1.7,4-3.4,5.2c-1.6,1.2-3.7,1.9-6.3,1.9c-3.2,0-5.7-1-7.6-3s-2.8-4.7-2.8-8.3
		c0-3.7,0.9-6.5,2.8-8.6s4.4-3.1,7.4-3.1c2.9,0,5.3,1,7.2,3c1.9,2,2.8,4.8,2.8,8.4c0,0.2,0,0.6,0,1h-16.3c0.1,2.4,0.8,4.2,2,5.5
		s2.8,1.9,4.6,1.9c1.4,0,2.5-0.4,3.5-1.1C232.8,336.1,233.5,335,234.1,333.4z M221.9,327.4h12.2c-0.2-1.8-0.6-3.2-1.4-4.1
		c-1.2-1.4-2.7-2.1-4.6-2.1c-1.7,0-3.1,0.6-4.3,1.7S222,325.5,221.9,327.4z"/>
	<path class="st1" d="M257.6,333.4l3.8,0.5c-0.6,2.2-1.7,4-3.4,5.2c-1.6,1.2-3.7,1.9-6.3,1.9c-3.2,0-5.7-1-7.6-3s-2.8-4.7-2.8-8.3
		c0-3.7,0.9-6.5,2.8-8.6s4.4-3.1,7.4-3.1c2.9,0,5.3,1,7.2,3c1.9,2,2.8,4.8,2.8,8.4c0,0.2,0,0.6,0,1h-16.3c0.1,2.4,0.8,4.2,2,5.5
		s2.8,1.9,4.6,1.9c1.4,0,2.5-0.4,3.5-1.1C256.3,336.1,257,335,257.6,333.4z M245.4,327.4h12.2c-0.2-1.8-0.6-3.2-1.4-4.1
		c-1.2-1.4-2.7-2.1-4.6-2.1c-1.7,0-3.1,0.6-4.3,1.7S245.5,325.5,245.4,327.4z"/>
	<path class="st1" d="M266,340.5v-30.2h3.7v30.2H266z"/>
	<path class="st1" d="M295.3,337.1l0.5,3.3c-1,0.2-2,0.3-2.8,0.3c-1.3,0-2.4-0.2-3.1-0.6c-0.7-0.4-1.3-1-1.6-1.7
		c-0.3-0.7-0.5-2.2-0.5-4.4v-12.6h-2.7v-2.9h2.7v-5.4l3.7-2.2v7.7h3.7v2.9h-3.7v12.8c0,1.1,0.1,1.7,0.2,2c0.1,0.3,0.3,0.5,0.6,0.7
		c0.3,0.2,0.7,0.3,1.3,0.3C294.1,337.3,294.6,337.2,295.3,337.1z"/>
	<path class="st1" d="M299,340.5v-30.2h3.7v10.9c1.7-2,3.9-3,6.6-3c1.6,0,3,0.3,4.2,1c1.2,0.6,2.1,1.5,2.6,2.7
		c0.5,1.1,0.8,2.8,0.8,4.9v13.9h-3.7v-13.9c0-1.9-0.4-3.2-1.2-4.1c-0.8-0.8-1.9-1.3-3.4-1.3c-1.1,0-2.1,0.3-3.1,0.9
		c-1,0.6-1.7,1.3-2.1,2.3s-0.6,2.3-0.6,4v12H299z"/>
	<path class="st1" d="M337.4,333.4l3.8,0.5c-0.6,2.2-1.7,4-3.4,5.2c-1.6,1.2-3.7,1.9-6.3,1.9c-3.2,0-5.7-1-7.6-3s-2.8-4.7-2.8-8.3
		c0-3.7,0.9-6.5,2.8-8.6s4.4-3.1,7.4-3.1c2.9,0,5.3,1,7.2,3c1.9,2,2.8,4.8,2.8,8.4c0,0.2,0,0.6,0,1H325c0.1,2.4,0.8,4.2,2,5.5
		s2.8,1.9,4.6,1.9c1.4,0,2.5-0.4,3.5-1.1C336.1,336.1,336.9,335,337.4,333.4z M325.3,327.4h12.2c-0.2-1.8-0.6-3.2-1.4-4.1
		c-1.2-1.4-2.7-2.1-4.6-2.1c-1.7,0-3.1,0.6-4.3,1.7S325.4,325.5,325.3,327.4z"/>
	<path class="st1" d="M356.2,333.9l3.7-0.6c0.2,1.5,0.8,2.6,1.7,3.4c0.9,0.8,2.3,1.2,4,1.2c1.7,0,3-0.3,3.8-1s1.2-1.5,1.2-2.4
		c0-0.8-0.4-1.5-1.1-2c-0.5-0.3-1.8-0.7-3.8-1.3c-2.7-0.7-4.6-1.3-5.7-1.8c-1.1-0.5-1.9-1.2-2.4-2.1c-0.5-0.9-0.8-1.9-0.8-2.9
		c0-1,0.2-1.9,0.7-2.7s1.1-1.5,1.8-2.1c0.6-0.4,1.4-0.8,2.4-1.1c1-0.3,2.1-0.4,3.2-0.4c1.7,0,3.2,0.2,4.5,0.7s2.3,1.2,2.9,2
		c0.6,0.8,1,2,1.3,3.4l-3.6,0.5c-0.2-1.1-0.6-2-1.4-2.6c-0.8-0.6-1.9-0.9-3.4-0.9c-1.7,0-2.9,0.3-3.7,0.8c-0.7,0.6-1.1,1.2-1.1,2
		c0,0.5,0.2,0.9,0.5,1.3c0.3,0.4,0.8,0.7,1.4,1c0.4,0.1,1.5,0.5,3.3,0.9c2.6,0.7,4.5,1.3,5.5,1.7c1,0.4,1.9,1.1,2.4,2
		c0.6,0.9,0.9,1.9,0.9,3.2c0,1.2-0.4,2.4-1.1,3.5c-0.7,1.1-1.8,1.9-3.1,2.5c-1.4,0.6-2.9,0.9-4.6,0.9c-2.8,0-5-0.6-6.5-1.8
		C357.6,338,356.6,336.2,356.2,333.9z"/>
	<path class="st1" d="M378.8,348.8v-30.3h3.4v2.8c0.8-1.1,1.7-1.9,2.7-2.5c1-0.6,2.2-0.8,3.7-0.8c1.9,0,3.5,0.5,5,1.4
		c1.4,1,2.5,2.3,3.2,4.1c0.7,1.8,1.1,3.7,1.1,5.8c0,2.2-0.4,4.3-1.2,6.1c-0.8,1.8-2,3.2-3.5,4.1c-1.5,1-3.1,1.4-4.8,1.4
		c-1.2,0-2.3-0.3-3.3-0.8s-1.8-1.2-2.4-2v10.7H378.8z M382.2,329.6c0,2.8,0.6,4.9,1.7,6.3c1.1,1.3,2.5,2,4.1,2
		c1.7,0,3.1-0.7,4.2-2.1c1.2-1.4,1.8-3.6,1.8-6.5c0-2.8-0.6-4.9-1.7-6.3c-1.1-1.4-2.5-2.1-4.1-2.1c-1.6,0-3,0.7-4.2,2.2
		C382.8,324.7,382.2,326.8,382.2,329.6z"/>
	<path class="st1" d="M416.6,337.7c-1.4,1.2-2.7,2-4,2.5c-1.3,0.5-2.6,0.7-4.1,0.7c-2.4,0-4.3-0.6-5.5-1.8c-1.3-1.2-1.9-2.7-1.9-4.5
		c0-1.1,0.2-2.1,0.7-2.9c0.5-0.9,1.1-1.6,1.9-2.1c0.8-0.5,1.7-0.9,2.7-1.2c0.7-0.2,1.8-0.4,3.3-0.6c3-0.4,5.2-0.8,6.6-1.3
		c0-0.5,0-0.8,0-1c0-1.5-0.4-2.6-1.1-3.2c-0.9-0.8-2.4-1.3-4.2-1.3c-1.7,0-3,0.3-3.9,0.9c-0.8,0.6-1.4,1.7-1.8,3.2l-3.6-0.5
		c0.3-1.6,0.9-2.8,1.6-3.8s1.8-1.7,3.3-2.2c1.4-0.5,3.1-0.8,5-0.8c1.9,0,3.4,0.2,4.6,0.7c1.2,0.4,2,1,2.6,1.7
		c0.6,0.7,0.9,1.5,1.2,2.5c0.1,0.6,0.2,1.8,0.2,3.4v5c0,3.5,0.1,5.6,0.2,6.6c0.2,0.9,0.5,1.8,0.9,2.6h-3.9
		C417,339.7,416.7,338.8,416.6,337.7z M416.3,329.5c-1.3,0.6-3.4,1-6.1,1.4c-1.5,0.2-2.6,0.5-3.2,0.7c-0.6,0.3-1.1,0.7-1.5,1.2
		c-0.3,0.5-0.5,1.1-0.5,1.8c0,1,0.4,1.8,1.1,2.5s1.8,1,3.3,1c1.4,0,2.7-0.3,3.8-0.9c1.1-0.6,1.9-1.5,2.5-2.6
		c0.4-0.8,0.6-2.1,0.6-3.7V329.5z"/>
	<path class="st1" d="M425.8,340.5v-21.9h3.3v3.3c0.9-1.6,1.6-2.6,2.4-3.1c0.7-0.5,1.5-0.7,2.4-0.7c1.3,0,2.5,0.4,3.8,1.2l-1.3,3.4
		c-0.9-0.5-1.8-0.8-2.7-0.8c-0.8,0-1.5,0.2-2.2,0.7c-0.6,0.5-1.1,1.2-1.4,2c-0.4,1.3-0.6,2.8-0.6,4.3v11.5H425.8z"/>
	<path class="st1" d="M439.9,340.5v-30.2h3.7v17.2l8.8-8.9h4.8l-8.4,8.1l9.2,13.8h-4.6l-7.2-11.2l-2.6,2.5v8.7H439.9z"/>
	<path class="st1" d="M472.8,314.5v-4.3h3.7v4.3H472.8z M472.8,340.5v-21.9h3.7v21.9H472.8z"/>
	<path class="st1" d="M482.1,340.5v-21.9h3.3v3.1c1.6-2.4,3.9-3.6,7-3.6c1.3,0,2.5,0.2,3.6,0.7s1.9,1.1,2.5,1.9
		c0.6,0.8,0.9,1.7,1.2,2.7c0.1,0.7,0.2,1.9,0.2,3.6v13.5h-3.7v-13.3c0-1.5-0.1-2.6-0.4-3.4c-0.3-0.7-0.8-1.3-1.5-1.8
		c-0.7-0.4-1.6-0.7-2.6-0.7c-1.6,0-2.9,0.5-4.1,1.5c-1.1,1-1.7,2.9-1.7,5.7v12H482.1z"/>
	<path class="st1" d="M517.2,348.9l-0.4-3.5c0.8,0.2,1.5,0.3,2.1,0.3c0.8,0,1.5-0.1,2-0.4c0.5-0.3,0.9-0.7,1.2-1.2
		c0.2-0.4,0.6-1.3,1.1-2.8c0.1-0.2,0.2-0.5,0.3-0.9l-8.3-22h4l4.6,12.7c0.6,1.6,1.1,3.3,1.6,5.1c0.4-1.7,0.9-3.4,1.5-5l4.7-12.8h3.7
		l-8.3,22.3c-0.9,2.4-1.6,4.1-2.1,5c-0.7,1.2-1.4,2.1-2.3,2.7c-0.9,0.6-1.9,0.9-3.1,0.9C518.9,349.3,518.1,349.2,517.2,348.9z"/>
	<path class="st1" d="M537.1,329.5c0-4.1,1.1-7.1,3.4-9c1.9-1.6,4.2-2.4,6.9-2.4c3,0,5.5,1,7.4,3c1.9,2,2.9,4.7,2.9,8.2
		c0,2.8-0.4,5-1.3,6.7s-2.1,2.9-3.7,3.8s-3.4,1.3-5.3,1.3c-3.1,0-5.5-1-7.4-3S537.1,333.2,537.1,329.5z M540.9,329.5
		c0,2.8,0.6,4.9,1.8,6.3c1.2,1.4,2.8,2.1,4.6,2.1c1.8,0,3.4-0.7,4.6-2.1c1.2-1.4,1.8-3.5,1.8-6.4c0-2.7-0.6-4.8-1.8-6.2
		c-1.2-1.4-2.8-2.1-4.6-2.1c-1.9,0-3.4,0.7-4.6,2.1C541.5,324.6,540.9,326.7,540.9,329.5z"/>
	<path class="st1" d="M576.3,340.5v-3.2c-1.7,2.5-4,3.7-7,3.7c-1.3,0-2.5-0.2-3.6-0.7c-1.1-0.5-2-1.1-2.5-1.9
		c-0.5-0.8-0.9-1.7-1.1-2.8c-0.2-0.7-0.2-1.9-0.2-3.5v-13.6h3.7v12.2c0,1.9,0.1,3.2,0.2,3.9c0.2,1,0.7,1.7,1.5,2.3
		c0.8,0.6,1.7,0.8,2.8,0.8c1.1,0,2.2-0.3,3.1-0.9c1-0.6,1.7-1.3,2.1-2.3c0.4-1,0.6-2.4,0.6-4.3v-11.7h3.7v21.9H576.3z"/>
	<path class="st1" d="M587.5,332.9l-1.1-16v-6.7h4.6v6.7l-1.1,16H587.5z M586.5,340.5v-4.2h4.3v4.2H586.5z"/>
</g>
<g>
	<path class="st1" d="M153.3,303.2c2.9,0.1,6.4-0.3,9.8,0.5c9.2,2.1,15.7,10.4,15.7,19.9c-0.1,9.5-6.7,17.8-15.9,19.7
		c-1.4,0.3-2.8,0.5-4.1,0.5c-4.5,0-9.1,0-13.6,0c-0.7,0-1.1-0.2-1.3-0.9c-2.4-7.8-3.2-15.8-2.7-23.9c0.3-5,1.2-9.9,2.6-14.8
		c0.2-0.8,0.6-1.1,1.4-1C147.7,303.2,150.2,303.2,153.3,303.2L153.3,303.2z"/>
	<path class="st1" d="M141.9,343.8c-3.9-0.2-7.7,0.4-11.5-0.5c-6.3-1.5-10.8-7-11.2-13.5c-0.1-1.5,0-3-0.1-4.5
		c0-0.6,0.2-0.8,0.8-0.8c1.1,0,2.2,0,3.3,0c0.4,0,0.7,0.1,0.9,0.5c0.6,0.8,1.4,1.1,2.4,1.1c2.3,0,4.6,0,6.9,0c0.8,0,1.6-0.2,2-0.8
		c0.9-1.2,2.1-0.5,3.1-0.7c0.4,0,0.3,0.3,0.3,0.6c0,3.1,0.4,6.2,0.8,9.3C140.2,337.7,141,340.7,141.9,343.8L141.9,343.8z"/>
	<path class="st1" d="M136.8,303.2c1.4,0,2.9,0,4.3,0c0.6,0,0.8,0,0.6,0.7c-1.8,5.8-2.6,11.7-2.8,17.7c0,0.6-0.3,0.8-0.8,0.7
		c-1.1,0-2.1,0.2-2.9-0.9c-0.4-0.5-1-0.5-1.7-0.5c-2.4,0-4.8,0-7.1,0c-0.5,0-1.2,0-1.5,0.4c-1,1.3-2.3,1-3.7,1.1
		c-2.1,0-2.1,0-2.1-2.1c-0.1-2.8,0-5.7,1.3-8.3c2.7-5.6,7.2-8.6,13.5-8.8C134.9,303.1,135.8,303.2,136.8,303.2L136.8,303.2
		L136.8,303.2z"/>
</g>
<g class="st0">
	<path class="st1" d="M481.7,77V39h-13.6v-7.7h36.4V39h-13.6v38H481.7z"/>
	<path class="st1" d="M510.5,77V31.2h19.5c4.9,0,8.4,0.4,10.7,1.2c2.2,0.8,4,2.3,5.3,4.4s2,4.5,2,7.2c0,3.4-1,6.3-3,8.5
		c-2,2.2-5,3.6-9.1,4.2c2,1.2,3.6,2.4,4.9,3.8s3.1,3.9,5.3,7.4l5.6,8.9h-11.1l-6.7-10c-2.4-3.6-4-5.8-4.9-6.7
		c-0.9-0.9-1.8-1.6-2.8-1.9s-2.5-0.5-4.7-0.5h-1.9V77H510.5z M519.7,50.6h6.8c4.4,0,7.2-0.2,8.3-0.6c1.1-0.4,2-1,2.6-1.9
		c0.6-0.9,0.9-2.1,0.9-3.4c0-1.5-0.4-2.8-1.2-3.7s-2-1.5-3.5-1.8c-0.7-0.1-3-0.2-6.7-0.2h-7.2V50.6z"/>
	<path class="st1" d="M597.9,77h-10.1l-4-10.4h-18.3L561.8,77H552l17.8-45.8h9.8L597.9,77z M580.9,58.9l-6.3-17l-6.2,17H580.9z"/>
	<path class="st1" d="M602.5,77V31.2h9.2V77H602.5z"/>
	<path class="st1" d="M620.7,77V31.2h9l18.7,30.6V31.2h8.6V77h-9.3l-18.5-29.9V77H620.7z"/>
	<path class="st1" d="M666.5,77V31.2h9.2V77H666.5z"/>
	<path class="st1" d="M684.6,77V31.2h9l18.7,30.6V31.2h8.6V77h-9.3l-18.5-29.9V77H684.6z"/>
	<path class="st1" d="M752,60.2v-7.7h19.9v18.2c-1.9,1.9-4.7,3.5-8.4,4.9s-7.4,2.1-11.2,2.1c-4.8,0-9-1-12.5-3s-6.2-4.9-8-8.6
		c-1.8-3.7-2.7-7.8-2.7-12.2c0-4.8,1-9,3-12.7c2-3.7,4.9-6.5,8.8-8.5c2.9-1.5,6.6-2.3,11-2.3c5.7,0,10.1,1.2,13.3,3.6
		c3.2,2.4,5.3,5.7,6.2,9.9l-9.2,1.7c-0.6-2.2-1.9-4-3.6-5.3c-1.8-1.3-4-2-6.7-2c-4,0-7.2,1.3-9.6,3.8s-3.6,6.4-3.6,11.4
		c0,5.4,1.2,9.5,3.6,12.2s5.6,4.1,9.5,4.1c1.9,0,3.9-0.4,5.8-1.1s3.6-1.7,5-2.8v-5.8H752z"/>
	<path class="st1" d="M778.1,62.1l9-0.9c0.5,3,1.6,5.2,3.3,6.7c1.7,1.4,3.9,2.1,6.7,2.1c3,0,5.2-0.6,6.7-1.9
		c1.5-1.3,2.3-2.7,2.3-4.4c0-1.1-0.3-2-1-2.8c-0.6-0.8-1.7-1.4-3.3-2c-1.1-0.4-3.5-1-7.4-2c-5-1.2-8.4-2.7-10.4-4.5
		c-2.8-2.5-4.2-5.6-4.2-9.2c0-2.3,0.7-4.5,2-6.5c1.3-2,3.2-3.6,5.7-4.6c2.5-1.1,5.5-1.6,9-1.6c5.7,0,10.1,1.3,13,3.8
		c2.9,2.5,4.4,5.9,4.6,10.1l-9.2,0.4c-0.4-2.4-1.2-4-2.5-5.1c-1.3-1-3.3-1.5-5.9-1.5c-2.7,0-4.8,0.6-6.3,1.7c-1,0.7-1.5,1.7-1.5,2.8
		c0,1.1,0.5,2,1.4,2.8c1.2,1,4,2,8.5,3.1c4.5,1.1,7.8,2.2,10,3.3c2.2,1.1,3.8,2.7,5.1,4.7c1.2,2,1.8,4.4,1.8,7.3
		c0,2.6-0.7,5.1-2.2,7.4s-3.5,4-6.2,5.1c-2.7,1.1-6,1.7-10,1.7c-5.8,0-10.2-1.3-13.3-4C780.6,71.1,778.7,67.2,778.1,62.1z"/>
</g>
<g class="st0">
	<path class="st1" d="M194,340.5v-30.2h20.4v3.6H198v9.4h14.2v3.6H198v13.7H194z"/>
	<path class="st1" d="M234.1,333.4l3.8,0.5c-0.6,2.2-1.7,4-3.4,5.2c-1.6,1.2-3.7,1.9-6.3,1.9c-3.2,0-5.7-1-7.6-3s-2.8-4.7-2.8-8.3
		c0-3.7,0.9-6.5,2.8-8.6s4.4-3.1,7.4-3.1c2.9,0,5.3,1,7.2,3c1.9,2,2.8,4.8,2.8,8.4c0,0.2,0,0.6,0,1h-16.3c0.1,2.4,0.8,4.2,2,5.5
		s2.8,1.9,4.6,1.9c1.4,0,2.5-0.4,3.5-1.1C232.8,336.1,233.5,335,234.1,333.4z M221.9,327.4h12.2c-0.2-1.8-0.6-3.2-1.4-4.1
		c-1.2-1.4-2.7-2.1-4.6-2.1c-1.7,0-3.1,0.6-4.3,1.7S222,325.5,221.9,327.4z"/>
	<path class="st1" d="M257.6,333.4l3.8,0.5c-0.6,2.2-1.7,4-3.4,5.2c-1.6,1.2-3.7,1.9-6.3,1.9c-3.2,0-5.7-1-7.6-3s-2.8-4.7-2.8-8.3
		c0-3.7,0.9-6.5,2.8-8.6s4.4-3.1,7.4-3.1c2.9,0,5.3,1,7.2,3c1.9,2,2.8,4.8,2.8,8.4c0,0.2,0,0.6,0,1h-16.3c0.1,2.4,0.8,4.2,2,5.5
		s2.8,1.9,4.6,1.9c1.4,0,2.5-0.4,3.5-1.1C256.3,336.1,257,335,257.6,333.4z M245.4,327.4h12.2c-0.2-1.8-0.6-3.2-1.4-4.1
		c-1.2-1.4-2.7-2.1-4.6-2.1c-1.7,0-3.1,0.6-4.3,1.7S245.5,325.5,245.4,327.4z"/>
	<path class="st1" d="M266,340.5v-30.2h3.7v30.2H266z"/>
	<path class="st1" d="M295.3,337.1l0.5,3.3c-1,0.2-2,0.3-2.8,0.3c-1.3,0-2.4-0.2-3.1-0.6c-0.7-0.4-1.3-1-1.6-1.7
		c-0.3-0.7-0.5-2.2-0.5-4.4v-12.6h-2.7v-2.9h2.7v-5.4l3.7-2.2v7.7h3.7v2.9h-3.7v12.8c0,1.1,0.1,1.7,0.2,2c0.1,0.3,0.3,0.5,0.6,0.7
		c0.3,0.2,0.7,0.3,1.3,0.3C294.1,337.3,294.6,337.2,295.3,337.1z"/>
	<path class="st1" d="M299,340.5v-30.2h3.7v10.9c1.7-2,3.9-3,6.6-3c1.6,0,3,0.3,4.2,1c1.2,0.6,2.1,1.5,2.6,2.7
		c0.5,1.1,0.8,2.8,0.8,4.9v13.9h-3.7v-13.9c0-1.9-0.4-3.2-1.2-4.1c-0.8-0.8-1.9-1.3-3.4-1.3c-1.1,0-2.1,0.3-3.1,0.9
		c-1,0.6-1.7,1.3-2.1,2.3s-0.6,2.3-0.6,4v12H299z"/>
	<path class="st1" d="M337.4,333.4l3.8,0.5c-0.6,2.2-1.7,4-3.4,5.2c-1.6,1.2-3.7,1.9-6.3,1.9c-3.2,0-5.7-1-7.6-3s-2.8-4.7-2.8-8.3
		c0-3.7,0.9-6.5,2.8-8.6s4.4-3.1,7.4-3.1c2.9,0,5.3,1,7.2,3c1.9,2,2.8,4.8,2.8,8.4c0,0.2,0,0.6,0,1H325c0.1,2.4,0.8,4.2,2,5.5
		s2.8,1.9,4.6,1.9c1.4,0,2.5-0.4,3.5-1.1C336.1,336.1,336.9,335,337.4,333.4z M325.3,327.4h12.2c-0.2-1.8-0.6-3.2-1.4-4.1
		c-1.2-1.4-2.7-2.1-4.6-2.1c-1.7,0-3.1,0.6-4.3,1.7S325.4,325.5,325.3,327.4z"/>
	<path class="st1" d="M356.2,333.9l3.7-0.6c0.2,1.5,0.8,2.6,1.7,3.4c0.9,0.8,2.3,1.2,4,1.2c1.7,0,3-0.3,3.8-1s1.2-1.5,1.2-2.4
		c0-0.8-0.4-1.5-1.1-2c-0.5-0.3-1.8-0.7-3.8-1.3c-2.7-0.7-4.6-1.3-5.7-1.8c-1.1-0.5-1.9-1.2-2.4-2.1c-0.5-0.9-0.8-1.9-0.8-2.9
		c0-1,0.2-1.9,0.7-2.7s1.1-1.5,1.8-2.1c0.6-0.4,1.4-0.8,2.4-1.1c1-0.3,2.1-0.4,3.2-0.4c1.7,0,3.2,0.2,4.5,0.7s2.3,1.2,2.9,2
		c0.6,0.8,1,2,1.3,3.4l-3.6,0.5c-0.2-1.1-0.6-2-1.4-2.6c-0.8-0.6-1.9-0.9-3.4-0.9c-1.7,0-2.9,0.3-3.7,0.8c-0.7,0.6-1.1,1.2-1.1,2
		c0,0.5,0.2,0.9,0.5,1.3c0.3,0.4,0.8,0.7,1.4,1c0.4,0.1,1.5,0.5,3.3,0.9c2.6,0.7,4.5,1.3,5.5,1.7c1,0.4,1.9,1.1,2.4,2
		c0.6,0.9,0.9,1.9,0.9,3.2c0,1.2-0.4,2.4-1.1,3.5c-0.7,1.1-1.8,1.9-3.1,2.5c-1.4,0.6-2.9,0.9-4.6,0.9c-2.8,0-5-0.6-6.5-1.8
		C357.6,338,356.6,336.2,356.2,333.9z"/>
	<path class="st1" d="M378.8,348.8v-30.3h3.4v2.8c0.8-1.1,1.7-1.9,2.7-2.5c1-0.6,2.2-0.8,3.7-0.8c1.9,0,3.5,0.5,5,1.4
		c1.4,1,2.5,2.3,3.2,4.1c0.7,1.8,1.1,3.7,1.1,5.8c0,2.2-0.4,4.3-1.2,6.1c-0.8,1.8-2,3.2-3.5,4.1c-1.5,1-3.1,1.4-4.8,1.4
		c-1.2,0-2.3-0.3-3.3-0.8s-1.8-1.2-2.4-2v10.7H378.8z M382.2,329.6c0,2.8,0.6,4.9,1.7,6.3c1.1,1.3,2.5,2,4.1,2
		c1.7,0,3.1-0.7,4.2-2.1c1.2-1.4,1.8-3.6,1.8-6.5c0-2.8-0.6-4.9-1.7-6.3c-1.1-1.4-2.5-2.1-4.1-2.1c-1.6,0-3,0.7-4.2,2.2
		C382.8,324.7,382.2,326.8,382.2,329.6z"/>
	<path class="st1" d="M416.6,337.7c-1.4,1.2-2.7,2-4,2.5c-1.3,0.5-2.6,0.7-4.1,0.7c-2.4,0-4.3-0.6-5.5-1.8c-1.3-1.2-1.9-2.7-1.9-4.5
		c0-1.1,0.2-2.1,0.7-2.9c0.5-0.9,1.1-1.6,1.9-2.1c0.8-0.5,1.7-0.9,2.7-1.2c0.7-0.2,1.8-0.4,3.3-0.6c3-0.4,5.2-0.8,6.6-1.3
		c0-0.5,0-0.8,0-1c0-1.5-0.4-2.6-1.1-3.2c-0.9-0.8-2.4-1.3-4.2-1.3c-1.7,0-3,0.3-3.9,0.9c-0.8,0.6-1.4,1.7-1.8,3.2l-3.6-0.5
		c0.3-1.6,0.9-2.8,1.6-3.8s1.8-1.7,3.3-2.2c1.4-0.5,3.1-0.8,5-0.8c1.9,0,3.4,0.2,4.6,0.7c1.2,0.4,2,1,2.6,1.7
		c0.6,0.7,0.9,1.5,1.2,2.5c0.1,0.6,0.2,1.8,0.2,3.4v5c0,3.5,0.1,5.6,0.2,6.6c0.2,0.9,0.5,1.8,0.9,2.6h-3.9
		C417,339.7,416.7,338.8,416.6,337.7z M416.3,329.5c-1.3,0.6-3.4,1-6.1,1.4c-1.5,0.2-2.6,0.5-3.2,0.7c-0.6,0.3-1.1,0.7-1.5,1.2
		c-0.3,0.5-0.5,1.1-0.5,1.8c0,1,0.4,1.8,1.1,2.5s1.8,1,3.3,1c1.4,0,2.7-0.3,3.8-0.9c1.1-0.6,1.9-1.5,2.5-2.6
		c0.4-0.8,0.6-2.1,0.6-3.7V329.5z"/>
	<path class="st1" d="M425.8,340.5v-21.9h3.3v3.3c0.9-1.6,1.6-2.6,2.4-3.1c0.7-0.5,1.5-0.7,2.4-0.7c1.3,0,2.5,0.4,3.8,1.2l-1.3,3.4
		c-0.9-0.5-1.8-0.8-2.7-0.8c-0.8,0-1.5,0.2-2.2,0.7c-0.6,0.5-1.1,1.2-1.4,2c-0.4,1.3-0.6,2.8-0.6,4.3v11.5H425.8z"/>
	<path class="st1" d="M439.9,340.5v-30.2h3.7v17.2l8.8-8.9h4.8l-8.4,8.1l9.2,13.8h-4.6l-7.2-11.2l-2.6,2.5v8.7H439.9z"/>
	<path class="st1" d="M472.8,314.5v-4.3h3.7v4.3H472.8z M472.8,340.5v-21.9h3.7v21.9H472.8z"/>
	<path class="st1" d="M482.1,340.5v-21.9h3.3v3.1c1.6-2.4,3.9-3.6,7-3.6c1.3,0,2.5,0.2,3.6,0.7s1.9,1.1,2.5,1.9
		c0.6,0.8,0.9,1.7,1.2,2.7c0.1,0.7,0.2,1.9,0.2,3.6v13.5h-3.7v-13.3c0-1.5-0.1-2.6-0.4-3.4c-0.3-0.7-0.8-1.3-1.5-1.8
		c-0.7-0.4-1.6-0.7-2.6-0.7c-1.6,0-2.9,0.5-4.1,1.5c-1.1,1-1.7,2.9-1.7,5.7v12H482.1z"/>
	<path class="st1" d="M517.2,348.9l-0.4-3.5c0.8,0.2,1.5,0.3,2.1,0.3c0.8,0,1.5-0.1,2-0.4c0.5-0.3,0.9-0.7,1.2-1.2
		c0.2-0.4,0.6-1.3,1.1-2.8c0.1-0.2,0.2-0.5,0.3-0.9l-8.3-22h4l4.6,12.7c0.6,1.6,1.1,3.3,1.6,5.1c0.4-1.7,0.9-3.4,1.5-5l4.7-12.8h3.7
		l-8.3,22.3c-0.9,2.4-1.6,4.1-2.1,5c-0.7,1.2-1.4,2.1-2.3,2.7c-0.9,0.6-1.9,0.9-3.1,0.9C518.9,349.3,518.1,349.2,517.2,348.9z"/>
	<path class="st1" d="M537.1,329.5c0-4.1,1.1-7.1,3.4-9c1.9-1.6,4.2-2.4,6.9-2.4c3,0,5.5,1,7.4,3c1.9,2,2.9,4.7,2.9,8.2
		c0,2.8-0.4,5-1.3,6.7s-2.1,2.9-3.7,3.8s-3.4,1.3-5.3,1.3c-3.1,0-5.5-1-7.4-3S537.1,333.2,537.1,329.5z M540.9,329.5
		c0,2.8,0.6,4.9,1.8,6.3c1.2,1.4,2.8,2.1,4.6,2.1c1.8,0,3.4-0.7,4.6-2.1c1.2-1.4,1.8-3.5,1.8-6.4c0-2.7-0.6-4.8-1.8-6.2
		c-1.2-1.4-2.8-2.1-4.6-2.1c-1.9,0-3.4,0.7-4.6,2.1C541.5,324.6,540.9,326.7,540.9,329.5z"/>
	<path class="st1" d="M576.3,340.5v-3.2c-1.7,2.5-4,3.7-7,3.7c-1.3,0-2.5-0.2-3.6-0.7c-1.1-0.5-2-1.1-2.5-1.9
		c-0.5-0.8-0.9-1.7-1.1-2.8c-0.2-0.7-0.2-1.9-0.2-3.5v-13.6h3.7v12.2c0,1.9,0.1,3.2,0.2,3.9c0.2,1,0.7,1.7,1.5,2.3
		c0.8,0.6,1.7,0.8,2.8,0.8c1.1,0,2.2-0.3,3.1-0.9c1-0.6,1.7-1.3,2.1-2.3c0.4-1,0.6-2.4,0.6-4.3v-11.7h3.7v21.9H576.3z"/>
	<path class="st1" d="M587.5,332.9l-1.1-16v-6.7h4.6v6.7l-1.1,16H587.5z M586.5,340.5v-4.2h4.3v4.2H586.5z"/>
</g>
<linearGradient id="SVGID_1_" gradientUnits="userSpaceOnUse" x1="731.26" y1="190.64" x2="54.87" y2="190.64" gradientTransform="matrix(1 0 0 -1 0 360)">
	<stop  offset="2.000000e-02" style="stop-color:#C6D92C"/>
	<stop  offset="0.32" style="stop-color:#8CB82F"/>
	<stop  offset="1" style="stop-color:#006838"/>
</linearGradient>
<path class="st2" d="M113.5,288.7c-39.7,0-70.7-19.7-72-57.1h47.8c1.3,14.2,10.2,21,22.9,21c13.1,0,21.6-6.6,21.6-17.4
	c0-34.2-92.3-15.8-91.8-81.2c0-35,28.7-54.4,67.3-54.4c40.2,0,67.3,20,69.1,55.2h-48.6c-0.8-11.8-9.2-18.9-21.3-19.2
	c-10.8-0.3-18.9,5.3-18.9,16.8c0,32.1,91.2,17.6,91.2,79.4C180.9,263,156.7,288.7,113.5,288.7L113.5,288.7z M421.5,257.5h-62
	l-9.9,29.4h-42.4l60.1-166.2L390.8,50l23.3,70.7l60.1,166.2h-42.9L421.5,257.5L421.5,257.5z M390.5,165.5l-20.4,60.8h41L390.5,165.5
	L390.5,165.5z M686,205.4v81.5h-45V102.3h45v81l61.5-81h52.8l-71.5,90.4l74.1,94.1H748L686,205.4L686,205.4z M585,213.8
	c28.4-8.4,41-30.2,41-53.4c0-32.1-22.6-58.1-67.8-58.1h-75.5v74.2h45v-36.9h27.9c16.8,0,24.7,8.9,24.7,22.6
	c0,14.5-7.9,23.1-24.7,23.1h-15.5c-2.8,0-5.6,0.3-8.3,0.8c-6.2,1.3-14.3,3.8-23.5,8.5c-0.8,0.4-1.5,0.8-2.3,1.3
	c-14.6,8.5-23.2,24.6-23.2,41.5v49.3h45v-69.7h10.8l38.4,69.7h50.7L585,213.8L585,213.8z M268.1,102.3h-72.8v75.4l44.9,0v-39.1h24.4
	c17.9,0,25.5,8.9,25.5,23.1s-7.6,23.1-25.5,23.1h-13.1c-9.7,0.4-25.2,1.8-38.1,6.4c-3.6,1.3-6.5,3.2-8.9,5.3
	c-6.1,5.5-9.3,13.6-9.3,21.9v68.4h44.9v-66.2h27.9c47.1,0,67.8-28.4,67.8-58.9C335.9,127.8,313.3,102.3,268.1,102.3z"/>
<g>
	<path class="st1" d="M153.3,303.2c2.9,0.1,6.4-0.3,9.8,0.5c9.2,2.1,15.7,10.4,15.7,19.9c-0.1,9.5-6.7,17.8-15.9,19.7
		c-1.4,0.3-2.8,0.5-4.1,0.5c-4.5,0-9.1,0-13.6,0c-0.7,0-1.1-0.2-1.3-0.9c-2.4-7.8-3.2-15.8-2.7-23.9c0.3-5,1.2-9.9,2.6-14.8
		c0.2-0.8,0.6-1.1,1.4-1C147.7,303.2,150.2,303.2,153.3,303.2L153.3,303.2z"/>
	<path class="st1" d="M141.9,343.8c-3.9-0.2-7.7,0.4-11.5-0.5c-6.3-1.5-10.8-7-11.2-13.5c-0.1-1.5,0-3-0.1-4.5
		c0-0.6,0.2-0.8,0.8-0.8c1.1,0,2.2,0,3.3,0c0.4,0,0.7,0.1,0.9,0.5c0.6,0.8,1.4,1.1,2.4,1.1c2.3,0,4.6,0,6.9,0c0.8,0,1.6-0.2,2-0.8
		c0.9-1.2,2.1-0.5,3.1-0.7c0.4,0,0.3,0.3,0.3,0.6c0,3.1,0.4,6.2,0.8,9.3C140.2,337.7,141,340.7,141.9,343.8L141.9,343.8z"/>
	<path class="st1" d="M136.8,303.2c1.4,0,2.9,0,4.3,0c0.6,0,0.8,0,0.6,0.7c-1.8,5.8-2.6,11.7-2.8,17.7c0,0.6-0.3,0.8-0.8,0.7
		c-1.1,0-2.1,0.2-2.9-0.9c-0.4-0.5-1-0.5-1.7-0.5c-2.4,0-4.8,0-7.1,0c-0.5,0-1.2,0-1.5,0.4c-1,1.3-2.3,1-3.7,1.1
		c-2.1,0-2.1,0-2.1-2.1c-0.1-2.8,0-5.7,1.3-8.3c2.7-5.6,7.2-8.6,13.5-8.8C134.9,303.1,135.8,303.2,136.8,303.2L136.8,303.2
		L136.8,303.2z"/>
</g>
<path class="st1" d="M117.2,325.6h-20C43.6,325.6,0,282,0,228.4v-56.8c0-53.9,43.9-97.8,97.8-97.8h260.9L391.3,0l30,73.8h46.4v4.9
	H418l-26.9-66.2l-29.2,66.2H97.8c-51.2,0-92.9,41.7-92.9,92.9v56.8c0,50.9,41.4,92.3,92.3,92.3h20L117.2,325.6L117.2,325.6z"/>
</svg>
